<?xml version="1.0" encoding="UTF-8"?> <svg xmlns="http://www.w3.org/2000/svg" viewBox="0 0 245 69.99"><path d="M35.85.05h29.86v14h-2.12v18.17h2.12v14H45.35l.52-22.09-4.54 22.09H26.35L21.93 23.9l.6 22.32H2.36v-14h2.11V14.05H2.36v-14h29.73l1.84 16.79L35.85.05Zm32.69 14h2.12v18.17h-2.12v14h23.13v-14h-2.12V14.05h2.12v-14H68.54v14Zm87.34 13.78c.04.24.06.49.07.73v5.03c-.06.59-.06 1.19-.06 1.78 0 .28-.02.56-.05.84-.03.32-.1.63-.21.93-.11.3-.25.59-.42.87-.64 1-1.4 1.93-2.26 2.75-.38.39-.78.77-1.19 1.13-.74.66-1.5 1.29-2.27 1.91-.39.31-.8.61-1.21.89-.83.59-1.75 1.02-2.73 1.28-.44.1-.88.17-1.33.2-.42.05-.84.05-1.27.05h-29.73V32.23h2.12V14.07h-2.12V0h29.33c.46.01.92.04 1.37.09 1.42.17 2.79.65 4 1.4.37.22.73.46 1.09.7 1.28.92 2.5 1.92 3.64 3 .3.28.58.57.86.86.28.29.53.6.77.93.49.63.83 1.37 1 2.15.07.36.12.72.14 1.08v4.78c.02.49.02.99 0 1.48a4.84 4.84 0 0 1-.85 2.43c-.42.58-.9 1.11-1.45 1.57-.56.52-1.16 1-1.79 1.44-.31.19-.62.38-.94.56l.53.24c.51.23 1.01.48 1.5.76.48.26.93.55 1.35.89a5.37 5.37 0 0 1 2.11 3.47Zm-21.81-11.22h.84c.41.04.82-.04 1.19-.22.05-.04.1-.08.14-.13.12-.16.19-.35.23-.54.04-.24.06-.48.06-.72.02-.34-.05-.68-.18-1a.581.581 0 0 0-.17-.18c-.09-.06-.19-.11-.3-.15-.23-.07-.47-.12-.71-.14-.25-.04-.5-.06-.75-.06h-.35v3.14Zm2.99 13.8c.04-.55-.1-1.1-.4-1.56-.07-.08-.16-.15-.25-.21l-.25-.1a7.66 7.66 0 0 0-1.26-.11h-.87v4.14h.94c.3 0 .61-.04.91-.09l.36-.09c.2-.04.38-.14.51-.3.08-.11.14-.24.17-.38.1-.43.14-.86.14-1.3Zm83.59.2 5.52 15.61h16.47v-14H240l-5.04-9.59 4.37-8.58h2.63v-14h-16.95l-4.4 14.22L216.25.05h-16.88v14h2.69l4.31 8.58-4.93 9.59h-2.88v14h16.99l5.1-15.61ZM193.2 41.89c-.76.74-1.36 1.3-2.22 2-.39.32-.79.63-1.21.91-.85.59-1.81 1-2.83 1.21-.44.08-.89.13-1.34.16h-16.1c-.48 0-.96-.04-1.44-.1-.51-.07-1.01-.19-1.49-.38-.95-.41-1.83-.98-2.58-1.69-.98-.88-1.82-1.71-2.75-2.71-.67-.68-1.31-1.4-1.91-2.15-.6-.76-1.1-1.59-1.46-2.49-.46-1.31-.69-2.69-.68-4.08V12.19c.02-.47.06-.93.13-1.39.07-.5.2-.98.38-1.45.39-.91.93-1.76 1.59-2.5.29-.34.59-.68.89-1 .55-.58 1.12-1.16 1.69-1.71.36-.32.75-.68 1.11-1s.73-.63 1.1-.93c.4-.31.82-.6 1.25-.86.87-.54 1.85-.9 2.86-1.07.44-.08.88-.13 1.33-.15v.09c.42-.05.85-.05 1.27-.05h14.25c.47 0 .94.04 1.4.1.96.1 1.9.39 2.74.87.48.28.94.59 1.37.94.97.8 1.89 1.66 2.77 2.56.32.3.62.7 1 1s.69.64 1 1c.32.38.62.77.89 1.18a7.532 7.532 0 0 1 1.3 4.08v22.22c-.01.45-.04.9-.09 1.35-.12.89-.4 1.75-.84 2.53-.26.46-.56.89-.89 1.3-.77.92-1.6 1.78-2.49 2.59Zm-14.65-26.33c.01-.39-.07-.77-.25-1.11a.537.537 0 0 0-.3-.19c-.21-.06-.42-.08-.64-.08-.35-.02-.69.05-1 .22-.04.03-.07.06-.09.1-.05.09-.09.18-.12.28-.06.31-.09.62-.09.94v14.81c0 .2.03.39.06.59.02.15.05.3.1.45.03.08.06.16.11.23.09.1.21.18.35.21.24.06.49.09.74.09.23 0 .46-.03.67-.12.1-.05.19-.14.24-.24.05-.12.1-.24.12-.37.03-.15.06-.31.07-.46h.03V15.56ZM92.35 29.4h19.71V16.57H92.35V29.4ZM13.09 50.82 0 60.4l13.09 9.59v-3.16h38.94V53.77H13.09v-2.95ZM245 60.4l-13.09-9.58v3.15H191.9v13.06h40.01v2.96L245 60.4Z" style="fill:#333"></path><path d="M62.74 55.87h4.27v2.02h-.4v5.21h.4v2.01h-2.76l.09-7.22-1.6 7.22h-1.82l-1.62-7.3.12 7.3h-2.75V63.1h.4v-5.21h-.4v-2.02h4.28l.89 5.79.9-5.79Zm10.18 3.35c.04.1.07.22.07.33v3.82c0 .1-.02.2-.06.3-.04.1-.1.2-.17.29-.07.1-.18.23-.32.39s-.29.33-.39.43c-.08.09-.18.17-.29.22-.09.05-.18.08-.28.09h-2.21a.732.732 0 0 1-.25-.08c-.1-.06-.19-.13-.28-.21-.14-.13-.27-.26-.4-.4-.13-.13-.25-.26-.36-.41-.08-.09-.14-.2-.19-.31-.04-.1-.06-.2-.07-.31v-3.98c.01-.07.03-.14.06-.2.05-.1.11-.19.18-.28.11-.14.23-.28.36-.4.13-.14.26-.27.4-.4.09-.08.19-.15.3-.2.1-.04.2-.07.31-.08h2.09c.1 0 .19.03.28.07.1.05.19.11.27.18.1.09.22.21.36.36.17.19.3.34.39.46.08.1.15.21.2.32Zm-1.98.99h-.01v-.28a.76.76 0 0 0-.06-.26.52.52 0 0 0-.17-.19.6.6 0 0 0-.32-.07c-.11 0-.22.02-.32.07-.07.05-.13.11-.16.19-.04.08-.06.17-.07.26v2.96c0 .1.03.2.07.29.07.2.26.33.47.32.12 0 .24-.02.34-.09.07-.06.13-.13.17-.21.03-.09.05-.18.06-.27v-2.72Zm11.33-2.38h-2.45v1.63h.37v4.03h-.37v1.62h2.81v-1.62h-.36v-5.66Zm-5.77 5.94-.73-5.94h-2.24v1.63h.38l.92 5.65h3.33l.9-5.65h.32v-1.63h-2.22l-.66 5.94Zm18.88-5.86h.04l-.04-.07v.07Zm-6.55 1.8c0-.11-.02-.22-.06-.32-.04-.12-.1-.23-.17-.33l-.33-.43c-.15-.19-.28-.34-.38-.45a.994.994 0 0 0-.3-.24.668.668 0 0 0-.31-.1h-4.02v1.63h.37v4h-.37v1.66h2.45v-5.66h.43c.09-.01.19-.01.28 0a.523.523 0 0 1 .25.26c.04.09.06.18.07.28v5.08h2.45v-1.62h-.36v-3.76Zm2.65-1.8h3.9v1.56h-.35v5.97c-.04.15-.11.3-.21.42-.1.15-.2.29-.31.42-.16.18-.29.33-.39.43-.08.09-.17.17-.28.23-.1.04-.2.06-.3.07h-3.32l-.2-2.33h1.73l.09.58c.03.05.06.1.1.15.05.04.11.07.18.07.14.02.28.02.42 0 .1 0 .19-.05.26-.11.06-.06.11-.14.13-.22v-1.03h-1.51a.887.887 0 0 1-.28-.07c-.1-.05-.19-.12-.28-.19l-.38-.38a5.07 5.07 0 0 1-.37-.44c-.08-.1-.14-.22-.19-.34-.04-.1-.06-.21-.07-.32v-2.73c0-.11.03-.22.07-.32.04-.11.1-.22.17-.31.08-.11.2-.25.34-.41.14-.16.3-.31.41-.41.09-.09.2-.16.31-.21.11-.04.22-.07.33-.08Zm.44 4.24c.01.1.06.18.14.24.09.07.2.1.31.1h.52V59.4h-.47a.53.53 0 0 0-.3.09c-.08.05-.13.14-.14.23-.02.15-.02.31 0 .46v1.49l-.06.02c-.02.15-.02.31 0 .46Zm22.55-.49-.89-5.79h-4.28v2.02h.4v5.21h-.4v2.01h2.75l-.12-7.3 1.62 7.3h1.82l1.6-7.22-.09 7.22h2.76V63.1h-.4v-5.21h.4v-2.02h-4.27l-.9 5.79Zm20.41-5.79h-2.07v1.34h2.07v-1.34Zm-9.33 3.35c.05.1.07.22.08.33v3.82c0 .1-.03.2-.06.3-.04.1-.1.2-.17.29-.07.1-.18.23-.32.39l-.4.43c-.08.09-.17.17-.28.22-.09.05-.18.08-.28.09h-2.21a.732.732 0 0 1-.25-.08c-.1-.06-.19-.13-.28-.21-.14-.13-.27-.26-.4-.4-.13-.13-.25-.27-.37-.41-.07-.1-.13-.2-.18-.31-.04-.1-.07-.2-.07-.31v-3.98c0-.07.03-.14.06-.2.05-.1.11-.19.18-.28.11-.14.23-.27.35-.4.17-.17.3-.31.41-.4.09-.08.19-.15.3-.2.1-.04.2-.07.3-.08h2.1c.09 0 .19.03.27.07.1.05.19.11.28.18l.35.36c.14.15.28.3.4.46.08.1.14.2.19.32Zm-1.99.71c0-.09-.03-.18-.07-.26a.421.421 0 0 0-.16-.19.636.636 0 0 0-.33-.07c-.11 0-.22.02-.31.07-.07.05-.13.11-.16.19-.04.08-.06.17-.08.26v2.96c.01.1.03.2.06.29.04.09.09.16.17.22.09.07.2.1.31.1.12 0 .23-.03.33-.09.08-.05.13-.13.17-.21.04-.09.06-.18.07-.27v-3Zm8.09-.65c.04.1.06.21.07.32v3.76c0 .11-.03.22-.07.32-.05.11-.11.21-.18.3l-.37.43-.39.42c-.1.08-.2.15-.31.21-.12.04-.24.07-.36.08h-3.54v-7.65h-.37v-1.63l2.45.02v2h1.56c.1 0 .19.03.28.07.11.05.2.12.29.2.14.12.27.25.39.39.16.17.28.32.37.43.08.1.14.21.18.33Zm-2.03.43c-.03-.1-.1-.19-.2-.24l-.09-.05h-.75v4.14h.57c.1 0 .19-.03.27-.09.07-.04.12-.1.15-.18.03-.09.05-.18.05-.28v-3.3Zm5.26-1.87h-2.46v1.63h.36v4h-.36v1.62h2.82v-1.62h-.36v-5.63Zm3.42-1.98h-2.45v1.62h.37v6.01h-.37v1.62h2.81v-1.62h-.36v-7.63Zm37.71 7.61h.41v1.61h-4.25c-.09 0-.18-.02-.26-.06a.821.821 0 0 1-.25-.16 5.309 5.309 0 0 1-.66-.66c-.07-.08-.12-.17-.16-.26a.765.765 0 0 1-.06-.3v-1.46c-.01-.18-.01-.37 0-.55.02-.12.06-.24.14-.34.08-.1.19-.17.31-.2.18-.06.36-.11.55-.15l2.16-.49v-.28c.02-.22-.03-.45-.13-.65-.09-.12-.28-.18-.59-.18-.1 0-.21 0-.3.05-.06.09-.1.19-.12.29l-.14.49h-1.73l.23-2.36h3.32c.09 0 .17.02.25.05.09.05.17.1.24.17l.31.3c.11.11.21.22.31.34.1.11.18.22.24.3l.12.21c.03.06.05.13.06.2v4.09Zm-2.08-1.56-.75.18h.03c-.11.03-.21.08-.31.14-.07.05-.1.16-.1.34v.73c.01.04.03.07.05.1.04.07.1.12.17.15.15.04.3.06.45.05h.46v-1.69Zm-3.74-3.66a.592.592 0 0 0-.13-.29.42.42 0 0 0-.25-.12h-4.44v1.63h.35v4h-.35v1.61h2.75v-1.62h-.36v-4h.52c.05.01.1.04.13.08.05.05.08.11.09.18.06.08.06.18.06.31l.14 1.1h1.74l-.18-2.34c-.07-.23-.07-.41-.07-.54Zm18.08 4.41-.17 2.46h-3.62l-.15-.1-.2-.17c-.13-.13-.24-.25-.34-.34l-.34-.4a1.07 1.07 0 0 1-.15-.22.631.631 0 0 1-.08-.23c-.01-.1-.01-.2 0-.3V59.4c.03-.09.07-.17.12-.25l.17-.25.17-.21.1-.11c.15-.16.27-.29.37-.38.08-.08.18-.14.28-.19.1-.04.2-.07.3-.08.14-.01.29-.01.43 0h1.56c.1.01.19.04.27.09.1.06.2.13.28.21.1.1.23.23.39.41s.25.29.33.4c.08.1.13.2.17.32.04.11.06.22.07.33v2.34h-3v.86c-.01.13-.01.27 0 .4.01.08.05.16.1.23.05.06.12.09.19.11h.31c.11 0 .23-.01.33-.06.07-.1.12-.22.14-.34l.09-.51 1.88-.06Zm-2.95-2.11h.95v-.74c0-.07-.02-.13-.05-.19a.54.54 0 0 0-.14-.16.402.402 0 0 0-.26-.06c-.15-.02-.3.03-.4.15-.09.19-.12.4-.1.61v.39Zm-20.78-1.33c.04.11.06.22.07.33v3.82c0 .1-.03.2-.06.3-.04.1-.1.2-.17.29-.07.1-.18.23-.32.39s-.29.33-.39.43c-.08.09-.18.17-.29.22-.09.05-.18.08-.28.09h-2.21a.732.732 0 0 1-.25-.08c-.1-.06-.19-.13-.28-.21-.14-.13-.27-.26-.4-.4-.13-.13-.25-.26-.36-.41-.08-.09-.14-.2-.19-.31-.04-.1-.06-.2-.07-.31v-3.98c.01-.07.03-.14.06-.2.05-.1.11-.19.18-.28.11-.14.23-.28.36-.4.13-.14.26-.27.4-.4.09-.08.19-.15.3-.2.1-.04.2-.07.31-.08h2.09c.09 0 .19.03.27.07.1.05.19.11.28.18.1.09.22.21.36.36.17.19.3.34.39.46.08.1.15.21.2.32Zm-1.99.99h-.01v-.28a.76.76 0 0 0-.06-.26.52.52 0 0 0-.17-.19.6.6 0 0 0-.32-.07c-.11 0-.22.02-.32.07-.07.05-.13.11-.16.19-.04.08-.06.17-.07.26v2.96c0 .1.03.2.07.29.07.2.26.33.47.32.12 0 .24-.02.34-.09.07-.06.13-.13.17-.21.03-.09.05-.18.06-.27v-2.72Zm-56.86 2.87c.12.1.24.19.37.27l-1.14 1.56a6.99 6.99 0 0 1-.65-.46c-.22-.17-.42-.32-.6-.44-.33.27-.7.48-1.1.63-.56.19-1.15.28-1.74.27a3.13 3.13 0 0 1-2.27-.75c-.48-.49-.75-1.15-.74-1.84 0-.52.16-1.03.44-1.46.36-.52.85-.92 1.43-1.17-.24-.32-.43-.68-.57-1.05-.11-.29-.16-.59-.16-.9-.02-.59.21-1.17.62-1.59.51-.46 1.19-.68 1.88-.63.68-.06 1.36.16 1.89.6.39.37.61.88.6 1.42 0 .31-.06.62-.19.9-.1.25-.25.49-.44.69-.29.28-.6.55-.93.79.36.44.75.85 1.16 1.24.11-.27.2-.54.27-.82l1.66.44c-.07.3-.15.59-.25.88-.1.26-.21.52-.34.77l.8.65Zm-4.84-5.44c.08.42.28.8.57 1.11.24-.15.46-.35.63-.58.14-.17.22-.37.23-.59 0-.18-.06-.36-.19-.49a.65.65 0 0 0-.51-.2c-.2 0-.39.07-.53.22-.14.14-.21.33-.2.53Zm1.55 5.13c-.45-.42-1-1-1.73-1.81-.23.17-.43.38-.58.62-.25.44-.18 1 .18 1.36.22.24.53.36.85.35.47-.03.92-.21 1.28-.52Zm80.2-4.86v1.56h-.34v5.97c-.05.15-.12.29-.21.42-.1.15-.21.29-.32.42-.15.18-.28.33-.38.43-.08.09-.18.17-.29.23-.09.04-.19.06-.29.07h-3.35l-.2-2.33h1.73l.1.58c.03.06.06.11.1.15.05.05.11.07.18.07.14.02.28.02.42 0 .1-.01.19-.05.26-.11.06-.06.1-.14.13-.22v-1.03h-1.51c-.1-.01-.19-.04-.28-.07-.1-.05-.19-.12-.28-.19-.1-.09-.22-.22-.37-.38a7.99 7.99 0 0 1-.38-.44c-.07-.11-.13-.22-.18-.34a.876.876 0 0 1-.07-.32v-2.73c0-.23.09-.45.24-.63.1-.14.22-.28.34-.41.13-.14.27-.28.41-.41.09-.09.19-.16.31-.21.1-.04.21-.07.32-.08h3.91Zm-2.48 1.49h-.52c-.11 0-.22.03-.31.09-.07.06-.12.14-.14.23-.01.15-.01.31 0 .46v1.51c-.01.15-.01.31 0 .46.02.09.07.18.14.24.09.06.2.1.31.1h.52V59.4Zm-37.47 3.22 1.77.04-.18 2.46h-3.61l-.16-.1-.19-.17-.34-.34c-.12-.13-.24-.26-.34-.4-.06-.07-.11-.14-.16-.22-.03-.07-.06-.15-.08-.23V59.4c.03-.09.07-.17.12-.25.06-.08.11-.17.18-.25l.17-.21s.06-.08.1-.11c.14-.16.27-.29.36-.38.08-.08.18-.14.28-.19.1-.04.2-.07.3-.08.15-.01.29-.01.44 0h1.55c.1.01.19.04.27.09.1.06.2.13.28.21l.4.41c.12.13.22.26.32.4.08.1.13.2.17.32.04.11.06.22.07.33v2.34h-3v.86c-.01.13-.01.27 0 .4.01.08.05.16.1.23.05.05.12.09.19.11h.31c.17.01.33-.05.45-.16.08-.1.13-.22.14-.34l.09-.51Zm-1.19-2.07h.96v-.74c0-.07-.03-.13-.06-.19a.509.509 0 0 0-.13-.16.431.431 0 0 0-.27-.06c-.15-.02-.3.04-.4.15-.08.19-.12.4-.1.61v.39Zm16.11 2.78a.384.384 0 0 1-.15-.3V59.4h1.34v-1.56l-1.34.07V56.53c0-.06-.04-.09-.09-.09-.04 0-.09.02-.12.05l-.14.12-2.18 1.84v1h.53v4.02c0 .09.01.18.03.27.04.11.09.21.15.31.1.14.2.27.31.39.14.17.26.3.35.39.17.15.38.25.61.27h1.91v-1.62c-.27.02-.53.02-.8 0-.15 0-.29-.06-.41-.15Zm-3.55-7.47v.09h.16l-.16-.09Zm.07 4.22a3.13 3.13 0 0 0-.51-.19l-2.31-.68a.678.678 0 0 1-.35-.17.665.665 0 0 1-.07-.37v-.44c.01-.08.05-.16.1-.22.07-.11.18-.18.3-.2.2-.01.4-.01.6 0 .08-.01.17-.01.25 0 .11.03.19.13.2.24v.73h1.94l-.21-2.83h-3.81c-.1.02-.19.05-.27.1-.1.05-.19.11-.28.18-.26.18-.5.4-.71.64-.15.16-.28.33-.38.52-.05.11-.07.24-.08.36v2.44c.01.14.06.28.13.4.09.11.21.2.34.27.21.09.43.17.65.24l1.92.6c.12.03.24.07.36.12.08.02.14.07.19.14.04.07.07.14.07.22v.36c.01.2-.04.4-.15.57a.83.83 0 0 1-.55.16h-.45c-.08 0-.16-.02-.24-.05a.216.216 0 0 1-.11-.12c-.02-.05-.07-.12-.07-.22l-.15-.77h-2l.2 3h4.11c.12-.01.25-.05.36-.1.13-.06.26-.14.37-.23a4.699 4.699 0 0 0 .79-.85c.08-.1.14-.21.18-.33.04-.11.06-.22.07-.34v-1.98c.02-.19.02-.39 0-.58a.733.733 0 0 0-.14-.38.955.955 0 0 0-.29-.24Zm-71.83-4.21h-2.07v1.34h2.07v-1.34Z" style="fill:#fff;fill-rule:evenodd"></path><path d="M147.47 22.62c3.85-1.68 6-3.66 6.53-5 .27-.84.38-1.72.31-2.6V11.1c-.06-2.23-.06-3.16-4.17-6.58s-5.66-3.35-9-3.35h-26.72V12.9h2.12v20.49h-2.12v11.67h27.51c3.79 0 4.48 0 9.08-4 .62-.56 3.05-2.79 3.55-4.28.19-.5.19-.81.25-3.17v-3.78c.06-2.61.06-4.73-7.34-7.21ZM132.9 12.27c3 0 4.79 0 4.79 2.74s-1.62 2.79-2.8 2.79h-1.99v-5.53Zm0 21.53v-6.52c3.11 0 3.48.06 4.11.37s1.24 1.24 1.24 2.79c0 3.36-1.49 3.36-5.35 3.36Zm50.72-32.62-.02.04h-11.7c-4.17.06-5.36.06-9.22 3.79-4.29 4.22-4.29 4.9-4.35 8.63v17.88c0 4.23.43 5.59 3.73 9 4.36 4.53 4.86 4.53 8.84 4.53h12.33c4.1 0 4.91 0 9.15-4 3.92-3.67 3.92-4.66 4-8.39v-18.5c0-4 0-5-3.86-8.82-4.11-4.1-4.85-4.1-8.9-4.16Zm-3.88 15.07v13.56c0 1.68-.06 3.42-2.3 3.42-2.49 0-2.49-1.62-2.55-3.42V16.25c0-1.62 0-3.23 2.49-3.23s2.36 1.74 2.36 3.23ZM36.9 1.21h27.64v11.68h-2.12v20.49h2.12v11.68H46.55l.74-32.17h-.31l-6.6 32.17H27.31l-6.48-32.73h-.37l.87 32.73H3.52V33.38h2.12V12.89H3.52V1.21h27.52l2.87 26.09L36.9 1.21Zm32.81 0H90.5v11.68h-2.11v20.49h2.11v11.68H69.71V33.38h2.11V12.89h-2.11V1.21Zm171.77 32.17v11.67h-14.49l-6.39-18.06-5.9 18.06h-14.97V33.38h2.42l5.52-10.74-4.89-9.75h-2.25V1.22h14.86l5.21 17.01 5.27-17.01h14.92v11.67h-2.18l-4.96 9.75 5.65 10.74h2.18ZM93.52 17.73h17.37v10.5H93.52v-10.5ZM1.97 60.4l9.96 7.29v-2.02h38.93V54.94H11.93v-1.82L1.97 60.4Zm241.06 0-9.96-7.29v2.03h-40.01v10.73h40.01v1.82l9.96-7.29Z" style="fill:#fd0"></path><path d="M119.97 5.01h-1.74l-1 1.79 1 1.79h2.08l1-1.79-1-1.79h-.34Zm-.33 2.44h-.75l-.37-.65.37-.64h.75c.14.23.24.41.37.64-.13.23-.23.42-.37.65Zm.33 30.02h-1.74l-1 1.79 1 1.8h2.08l1-1.8-1-1.79h-.34Zm-.33 2.44h-.75l-.37-.64c.13-.24.24-.42.37-.65h.75c.14.23.24.41.37.65l-.37.64Zm26.98-34.9h-1.75l-1 1.79 1 1.79h2.08l1-1.79-1-1.79h-.33Zm-.33 2.44h-.75l-.37-.65c.13-.23.23-.41.37-.64h.75l.37.64-.37.65Zm.33 30.02h-1.75l-1 1.79 1 1.8h2.08l1-1.8-1-1.79h-.33Zm-.33 2.44h-.75l-.37-.64c.13-.24.23-.42.37-.65h.75c.13.23.24.41.37.65l-.37.64Zm21.93-34.9h-1.75l-1 1.79 1 1.79h2.08l1-1.79-1-1.79h-.33Zm-.33 2.44h-.75l-.38-.65.38-.64h.75c.13.23.23.41.37.64-.14.23-.24.42-.37.65Zm.33 30.02h-1.75l-1 1.79 1 1.8h2.08l1-1.8-1-1.79h-.33Zm-.33 2.44h-.75l-.38-.64.38-.65h.75l.37.65c-.14.23-.24.41-.37.64Zm19.82-34.9h-1.74l-1 1.79 1 1.79h2.08l1-1.79-1-1.79h-.34Zm-.33 2.44h-.75l-.37-.65.37-.64h.75l.37.64c-.13.23-.24.41-.37.65Zm.33 30.02h-1.74l-1 1.79 1 1.8h2.08l1-1.8-1-1.79h-.34Zm-.33 2.44h-.75l-.37-.64c.13-.24.24-.42.37-.65h.75c.13.23.24.41.37.65l-.37.64Zm21.74-34.9h-1.7l-1 1.79 1 1.79h2l1-1.79-1-1.79h-.3Zm-.33 2.44h-.75c-.13-.23-.23-.42-.37-.65.14-.23.24-.41.37-.64h.75l.37.64-.37.65Zm.33 30.02h-1.7l-1 1.79 1 1.8h2l1-1.8-1-1.79h-.3Zm-.33 2.44h-.75c-.13-.23-.23-.41-.37-.64l.37-.65h.75c.13.23.24.41.37.65l-.37.64Zm25.19-31.32 1-1.79-1-1.79h-2.08l-1 1.79 1 1.79h2.08Zm-1.42-2.43h.75c.14.23.24.41.37.64-.13.23-.23.42-.37.65h-.75c-.13-.23-.24-.41-.37-.65l.37-.64Zm1.08 31.31h-1.74l-1 1.79 1 1.8h2.08l1-1.8-1-1.79h-.34Zm-.33 2.44h-.75l-.37-.64c.13-.24.24-.42.37-.65h.75c.14.23.24.41.37.65-.13.23-.23.41-.37.64ZM9.22 5.28H7.48l-1 1.79 1 1.79h2.07l1-1.79-1-1.79h-.33Zm-.33 2.44h-.75c-.13-.24-.24-.42-.37-.65l.37-.64h.75l.37.64c-.13.23-.24.41-.37.65Zm.33 30.05H7.48l-1 1.79 1 1.8h2.07l1-1.8-1-1.79h-.33Zm-.33 2.44h-.75l-.37-.64c.13-.24.24-.42.37-.65h.75c.13.23.24.41.37.65l-.37.64ZM80.76 5.28h-1.74l-1 1.79 1 1.79h2.08l1-1.79-1-1.79h-.34Zm-.34 2.48h-.75c-.13-.24-.23-.42-.37-.65.14-.23.24-.41.37-.64h.75c.14.23.24.41.37.64l-.37.65Zm.34 30.01h-1.74l-1 1.79 1 1.8h2.08l1-1.8-1-1.79h-.34Zm-.33 2.44h-.75c-.13-.23-.23-.41-.37-.64l.37-.65h.75c.14.23.24.41.37.65-.13.23-.23.41-.37.64ZM60.17 5.28h-1.75l-1 1.79 1 1.79h2.08l1-1.79-1-1.79h-.33Zm-.34 2.44h-.74l-.37-.65c.13-.23.23-.41.37-.64h.74l.38.64-.38.65Zm.34 30.05h-1.75l-1 1.79 1 1.8h2.08l1-1.8-1-1.79h-.33Zm-.34 2.44h-.74c-.14-.23-.24-.41-.37-.64.13-.24.23-.42.37-.65h.75l.37.65-.38.64Zm-25.01-2.44h-1.75l-1 1.79 1 1.8h2.08l1-1.8-1-1.79h-.33Zm-.34 2.44h-.75c-.13-.23-.23-.41-.37-.64l.37-.65h.75l.38.65-.38.64ZM26.42 5.28h-1.75l-1 1.79 1 1.79h2.08l1-1.79-1-1.79h-.33Zm-.33 2.44h-.75l-.37-.65c.13-.23.23-.41.37-.64h.75l.37.64c-.13.23-.24.41-.37.65ZM42.7 5.28h-1.74l-1 1.79 1 1.79h2.08l1-1.79-1-1.79h-.34Zm-.28 2.48h-.75c-.13-.24-.24-.42-.37-.65l.37-.64h.75l.37.64c-.13.23-.24.41-.37.65Z" style="fill-rule:evenodd;fill:#333"></path></svg> 